<svg xmlns="http://www.w3.org/2000/svg" viewBox="0.263001 126.623 117.4 337.6">
  <path d="M101.039,243.651H16.922c-9.155,0-16.559,7.414-16.559,16.555v187.332c0,9.142,7.404,16.557,16.559,16.557
		h84.117c9.137,0,16.554-7.415,16.554-16.557V260.206C117.593,251.065,110.176,243.651,101.039,243.651z M58.978,224.704c18.671,0,33.841-15.152,33.841-33.84c0-17.055-2.117-36.195-31.285-62.727
		c-1.497-1.355-3.626-1.78-5.53-1.084c-1.904,0.693-3.265,2.386-3.519,4.393c-3.294,24.838-27.347,43.072-27.347,59.418
		C25.137,209.551,40.289,224.704,58.978,224.704z" fill="#000000"/>
</svg>